<svg width="119" height="35" fill="none" xmlns="http://www.w3.org/2000/svg"><g clip-path="url(#clip0_1_5781)" fill-rule="evenodd" clip-rule="evenodd"><path d="M43.24 9.97c0-3.69 2.14-6.087 5.974-6.087a7.67 7.67 0 013.474.68l-.512 1.352a8.303 8.303 0 00-2.93-.51c-2.34-.016-4.186 1.271-4.186 4.404 0 3.198 1.91 4.582 4.505 4.582a8.514 8.514 0 002.723-.413l.416 1.392a8.809 8.809 0 01-3.427.583c-3.977 0-6.038-2.388-6.038-5.982zm10.502.81c0-1.853.351-4.768 1.39-5.747.91-.858 3.338-1.441 6.165-1.967l.28 1.554c-2.516.429-4.744.826-5.287 1.36a4.39 4.39 0 00-.8 2.315c.944-.523 2-.801 3.076-.81 2.164 0 3.538 1.077 3.538 3.822 0 3.23-1.869 4.67-4.36 4.67-2.477 0-4.002-1.554-4.002-5.197zm6.629.591c0-1.433-.615-2.542-2.253-2.542a5.72 5.72 0 00-2.675.778c-.016.291-.032.728-.032 1.02 0 2.703.807 3.958 2.46 3.958 1.957 0 2.5-1.651 2.5-3.214zm3.154.106c0-3.579 1.813-4.922 4.082-4.922 2.523 0 3.585 1.61 3.585 4.557v.607H65.26c.016 2.389 1.373 2.866 2.954 2.866a8.195 8.195 0 002.484-.397l.296 1.344a8.916 8.916 0 01-3.043.494c-2.692 0-4.425-1.06-4.425-4.55zm5.878-.964c0-1.603-.575-2.647-1.9-2.647-1.19 0-2.077.874-2.197 2.647h4.097zm3.602-3.675h1.797v.664a3.706 3.706 0 012.436-.931c2.133 0 3.586 1.497 3.586 4.509 0 3.691-2.18 4.849-4.608 4.849-.472.01-.944-.005-1.413-.049v3.336h-1.797V6.838zm6.07 4.323c0-1.643-.575-3.117-2.316-3.117a3.706 3.706 0 00-1.957.68v5.732a7.85 7.85 0 001.382.162c2.069 0 2.891-1.441 2.891-3.457zm3.243-.38c0-1.854.351-4.769 1.39-5.748.91-.858 3.338-1.441 6.165-1.967l.28 1.554c-2.516.429-4.744.826-5.287 1.36a4.39 4.39 0 00-.8 2.315c.944-.523 2-.801 3.076-.81 2.164 0 3.538 1.077 3.538 3.822 0 3.23-1.87 4.67-4.36 4.67-2.493 0-4.002-1.554-4.002-5.197zm6.629.59c0-1.433-.615-2.542-2.252-2.542a5.72 5.72 0 00-2.676.778 21.71 21.71 0 00-.032 1.02c0 2.703.807 3.958 2.46 3.958 1.957 0 2.5-1.651 2.5-3.214zm2.843 2.024c0-2.283 2.02-2.752 3.586-2.768l1.965-.033v-.971c0-1.247-.623-1.579-1.95-1.579a7.49 7.49 0 00-2.523.437l-.367-1.311a8.072 8.072 0 013.17-.615c2.165 0 3.355.76 3.355 2.598v4.72a.783.783 0 00.314.567c.18.133.41.18.628.129l-.136 1.327a2.34 2.34 0 01-.343.033c-.927 0-1.829-.283-1.997-1.093a4.589 4.589 0 01-2.923 1.141c-1.669 0-2.78-.914-2.78-2.582zm5.55.397v-2.089l-1.916.09c-1.238.032-1.949.558-1.949 1.489 0 .906.663 1.222 1.541 1.222a4.52 4.52 0 002.325-.712zm4.106-6.954h1.733v3.772h4.249V6.838h1.733v9.067h-1.733v-3.918h-4.249v3.918h-1.733V6.838zm9.847 0h1.733v9.067h-1.733V6.838zm4.361 7.431l-2.564-3.076 3.594-4.355h1.949l-3.674 4.226 1.789 1.983a4.806 4.806 0 002.244 1.635l-.295 1.32a3.919 3.919 0 01-3.043-1.733zm-80.241 2.882c-.13 9.816-8.018 17.704-17.703 17.704-9.684 0-17.572-7.888-17.702-17.704 0-.396.016-.793.04-1.182l10.718 6.177L33.464 9.064a17.63 17.63 0 011.949 8.087zm-24.647.494L.791 11.898c-.201.639-.361 1.29-.48 1.95l10.455 6.023L32.49 7.356a17.08 17.08 0 00-1.159-1.562L10.766 17.645zM29.99 4.337A18.931 18.931 0 0028.432 3L10.766 13.185 2.332 8.319c-.319.561-.607 1.14-.862 1.733l9.296 5.359L29.99 4.337zm-19.224 6.727l15.877-9.148A17.073 17.073 0 0024.575.88L10.766 8.83l-6.15-3.538a18.72 18.72 0 00-1.237 1.514l7.387 4.258z" fill="#299D37"/><path d="M43.295 26.307c0-3.691 2.244-6.015 5.958-6.015 3.906 0 5.719 2.59 5.719 6.047 0 3.635-2.109 6.056-5.99 6.056-3.778 0-5.687-2.453-5.687-6.088zm9.872.016c0-2.607-1.286-4.582-4.017-4.582-2.852 0-4.066 1.976-4.066 4.55 0 2.501 1.166 4.646 3.954 4.646 2.963 0 4.129-2.007 4.129-4.614zm3.602-3.011h1.66v3.837h4.106v-3.837h1.741v9.066h-1.741v-3.853H58.43v3.853h-1.661v-9.066zm8.833 7.884a3.11 3.11 0 001.74-1.327c.496-.931.816-3.433.911-6.557h5.79v9.066h-1.645v-7.706h-2.62c-.247 3.157-.558 5.084-1.157 6.193a3.92 3.92 0 01-2.5 1.797l-.52-1.465zm10.095-1.262c0-2.291 2.028-2.753 3.602-2.769l1.972-.032v-.98c0-1.246-.63-1.578-1.956-1.578-.864 0-1.722.145-2.54.429l-.36-1.312a8.051 8.051 0 013.18-.615c2.172 0 3.362.769 3.362 2.607v4.735a.783.783 0 00.314.567c.18.134.41.181.628.13l-.136 1.327c-.113.02-.228.03-.343.033-.927 0-1.837-.284-2.005-1.093a4.614 4.614 0 01-2.93 1.141c-1.678 0-2.788-.907-2.788-2.59zm5.575.404v-2.096l-1.925.08c-1.246.041-1.957.567-1.957 1.498-.002.396.168.772.465 1.028.298.257.692.366 1.076.3a4.676 4.676 0 002.34-.81zm4.28-7.026h1.637v5.545l-.047 1.214.782-1.23 3.858-5.53h1.74v9.067h-1.74v-5.512l.048-1.247-.775 1.263-3.866 5.496h-1.637v-9.066zm1.246-3.166l.743-.825a2.495 2.495 0 001.957.995 2.523 2.523 0 001.972-.995l.727.825a3.16 3.16 0 01-2.7 1.53 3.159 3.159 0 01-2.699-1.53zm9.017 3.166h1.741v3.837h4.257v-3.837h1.741v9.066h-1.741v-3.853h-4.257v3.853h-1.741v-9.066z" fill="#F59726"/></g><defs><clipPath id="clip0_1_5781"><path fill="#fff" transform="translate(0 .88)" d="M0 0h119v34H0z"/></clipPath></defs></svg>